<svg xmlns="http://www.w3.org/2000/svg" viewBox="0 0 373.05 776.2"><defs><style>.cls-1{fill:#fff;}</style></defs><g id="Ebene_2" data-name="Ebene 2"><g id="Ebene_1-2" data-name="Ebene 1"><path class="cls-1" d="M357.77,261.84a39.16,39.16,0,0,1-54.91-7.17L225.69,154.32V737a39.16,39.16,0,0,1-78.32,0V154.32L70.2,254.67A39.16,39.16,0,1,1,8.12,206.93l147-191.11.07-.09.34-.44a.76.76,0,0,1,.08-.11l.47-.6.94-1.11c.21-.25.43-.49.65-.73a.86.86,0,0,1,.13-.14c.18-.2.36-.4.55-.59l1.07-1.07.39-.37.2-.18.87-.78.31-.27c.19-.17.38-.33.58-.48l.07-.06.75-.6.11-.08.67-.5c.22-.17.45-.33.68-.49.91-.64,1.84-1.24,2.78-1.79l.06,0c.41-.24.83-.47,1.25-.69l.19-.11c.45-.23.91-.47,1.38-.69s.73-.34,1.1-.49l.23-.1.14-.07.1,0c.44-.19.88-.37,1.33-.54l.19-.07.42-.16.08,0,.34-.11h0l.38-.13.29-.1c.29-.1.58-.19.88-.27l.52-.16h0l.27-.08.26-.07.54-.14.12,0,1-.23.15,0,.43-.09.49-.1.16,0c.31-.07.61-.12.92-.17s.53-.09.8-.12h0l.21,0,.5-.07,1.29-.14,1.3-.1.23,0,.42,0h.31q.69,0,1.38,0h.12q.71,0,1.38,0h.31l.42,0,.23,0,1.3.1,1.29.14.5.07.25,0c.27,0,.53.08.8.12l.92.17.16,0,.49.1.54.12h0l.11,0,1,.23.47.12.06,0,.29.07.24.08h0l.29.09.3.09.44.13.25.08.3.1.23.08.26.09h0l.31.1.67.25.12.05c.41.15.81.31,1.21.48l.48.21.89.4c.41.2.82.39,1.22.6l.18.09.66.35.76.43.31.18,1.37.83a.05.05,0,0,1,0,0c.46.3.92.61,1.37.93s.91.65,1.35,1a.38.38,0,0,1,.11.08l.75.6a.19.19,0,0,1,.07.06c.2.15.39.31.58.48a2.32,2.32,0,0,0,.25.21c.31.27.63.55.93.84l.2.18.39.37c.37.35.72.7,1.07,1.07.19.19.37.39.55.59a.86.86,0,0,1,.13.14c.22.24.44.48.65.73s.63.73.94,1.11l.47.6a.76.76,0,0,0,.08.11l.34.44.07.09,147,191.11A39.16,39.16,0,0,1,357.77,261.84Z"/></g></g></svg>